<svg width="100" height="100" viewBox="0 0 100 100" fill="none" xmlns="http://www.w3.org/2000/svg">
<circle cx="50" cy="50" r="50" fill="#CD7C70"/>
<path d="M33.3846 70.1468C30.1176 70.1468 27.1583 69.3418 24.5068 67.732C21.8789 66.1222 19.8311 63.8849 18.3633 61.0204C16.8955 58.1321 16.1616 54.9006 16.1616 51.3258V49.7988C16.1616 46.1056 16.8718 42.7793 18.2923 39.8201C19.7364 36.8608 21.7369 34.5407 24.2937 32.8598C26.8505 31.1553 29.6204 30.303 32.6034 30.303C37.2672 30.303 40.9604 31.901 43.6829 35.0971C46.4291 38.2694 47.8022 42.6136 47.8022 48.1297V50.509H20.3875V51.3258C20.3875 55.6818 21.6304 59.3158 24.1162 62.2277C26.6256 65.116 29.7743 66.5601 33.5622 66.5601C35.8349 66.5601 37.8354 66.1458 39.5636 65.3172C41.3155 64.4886 42.9017 63.1629 44.3221 61.34L46.9855 63.3641C43.8605 67.8859 39.3269 70.1468 33.3846 70.1468ZM32.6034 33.9252C29.4074 33.9252 26.7085 35.0971 24.5068 37.4408C22.3288 39.7846 21.003 42.9332 20.5295 46.8868H43.5764V46.4252C43.458 42.732 42.4045 39.7254 40.4159 37.4053C38.4272 35.0852 35.8231 33.9252 32.6034 33.9252Z" fill="#E5E5E5"/>
<path d="M68.1502 46.6027L78.5196 31.0133H83.5622L70.5295 49.8698L84.1304 69.4365H79.1233L68.1858 53.1723L57.2483 69.4365H52.2412L65.8065 49.8698L52.7738 31.0133H57.7809L68.1502 46.6027Z" fill="#E5E5E5"/>
</svg>
